<?xml version="1.0" standalone="no"?>
<!DOCTYPE svg PUBLIC "-//W3C//DTD SVG 20010904//EN"
 "http://www.w3.org/TR/2001/REC-SVG-20010904/DTD/svg10.dtd">
<svg version="1.0" xmlns="http://www.w3.org/2000/svg"
 width="1444.000000pt" height="1444.000000pt" viewBox="0 0 1444.000000 1444.000000"
 preserveAspectRatio="xMidYMid meet">
<metadata>
Created by potrace 1.11, written by Peter Selinger 2001-2013
</metadata>
<g transform="translate(0.000000,1444.000000) scale(0.100000,-0.100000)"
fill="#000000" stroke="none">
<path d="M7200 14330 c-12 -10 -22 -22 -23 -27 -1 -4 -6 -7 -10 -5 -5 1 -5 -2
-2 -8 4 -6 -2 -19 -13 -28 -10 -9 -18 -25 -16 -34 1 -10 -4 -18 -11 -18 -14 0
-30 -28 -26 -45 2 -5 0 -7 -4 -3 -4 4 -14 0 -22 -8 -8 -8 -20 -11 -26 -7 -7 3
-9 3 -6 -1 8 -9 -43 -65 -53 -59 -12 6 -48 -21 -48 -36 0 -8 -3 -11 -7 -8 -3
4 -13 -2 -20 -13 -8 -11 -19 -18 -24 -14 -5 3 -8 0 -7 -6 2 -7 -15 -22 -38
-34 -22 -11 -49 -29 -58 -38 -16 -17 -30 -22 -48 -19 -4 0 -4 -7 -1 -17 6 -15
5 -16 -12 -2 -10 8 -16 10 -12 3 7 -11 -28 -30 -46 -25 -4 1 -6 -1 -6 -5 3
-21 -2 -32 -15 -27 -8 3 -17 0 -21 -5 -3 -6 -11 -9 -16 -6 -5 4 -12 -1 -15 -9
-3 -9 -10 -13 -15 -10 -5 3 -9 0 -9 -5 0 -6 -7 -11 -17 -11 -9 0 -14 -3 -10
-6 7 -7 -15 -33 -24 -28 -4 2 -23 -3 -42 -11 -19 -8 -38 -11 -42 -7 -5 4 -5 1
-1 -5 4 -8 1 -13 -7 -13 -8 0 -20 -7 -27 -15 -7 -8 -16 -12 -21 -9 -5 3 -9 0
-9 -5 0 -6 -7 -11 -15 -11 -25 0 -66 -31 -58 -44 4 -6 0 -5 -9 2 -11 9 -18 9
-23 3 -3 -6 -20 -15 -38 -19 -18 -5 -31 -15 -29 -21 1 -7 -2 -10 -8 -6 -6 4
-17 1 -25 -5 -8 -7 -15 -9 -15 -5 0 4 -6 2 -13 -4 -8 -6 -17 -8 -20 -4 -4 3
-9 -1 -13 -10 -3 -9 -14 -14 -25 -12 -10 2 -23 -3 -27 -12 -5 -8 -13 -15 -18
-15 -5 0 -20 -4 -32 -9 -13 -5 -27 -7 -32 -4 -4 3 -11 -2 -14 -11 -3 -8 -10
-13 -15 -9 -5 3 -12 1 -16 -5 -3 -5 -15 -10 -25 -10 -10 0 -20 -4 -22 -10 -1
-5 -15 -11 -30 -12 -15 -1 -25 -5 -23 -8 1 -3 -12 -12 -31 -21 -19 -9 -31 -11
-28 -5 3 6 -1 4 -8 -6 -8 -9 -23 -18 -33 -20 -11 -1 -26 -9 -33 -16 -8 -7 -18
-9 -24 -6 -7 4 -8 2 -4 -4 4 -7 4 -12 -1 -13 -29 -2 -47 -9 -53 -20 -5 -6 -13
-8 -20 -4 -8 5 -11 4 -6 -3 3 -6 -7 -16 -23 -23 -16 -7 -27 -17 -25 -21 3 -4
-5 -8 -18 -8 -26 -1 -61 -24 -51 -33 3 -4 -3 -7 -15 -7 -11 0 -24 -5 -27 -11
-4 -6 -14 -8 -22 -5 -8 3 -12 2 -9 -3 7 -10 -22 -24 -34 -16 -4 3 -6 -5 -2
-17 5 -21 4 -22 -11 -9 -15 12 -17 12 -12 -2 4 -8 1 -18 -6 -23 -8 -4 -10 -3
-5 4 11 18 -5 14 -18 -3 -6 -9 -21 -17 -33 -18 -12 0 -20 -4 -18 -8 3 -3 -4
-14 -15 -24 -11 -10 -20 -14 -20 -10 0 4 -11 -4 -24 -18 -13 -14 -27 -23 -30
-20 -3 4 -6 -2 -6 -12 0 -14 -3 -15 -14 -6 -11 10 -16 8 -21 -9 -4 -12 -9 -19
-12 -16 -4 3 -19 -8 -35 -24 -15 -17 -33 -30 -38 -30 -6 0 -10 -4 -10 -10 0
-5 -11 -10 -25 -10 -15 0 -25 -6 -25 -15 0 -8 -12 -18 -26 -21 -14 -4 -22 -9
-17 -13 5 -3 1 -14 -9 -23 -10 -10 -19 -17 -21 -15 -8 5 -35 -31 -29 -38 4 -5
-1 -5 -11 -2 -10 4 -16 3 -14 -1 7 -10 -19 -32 -27 -24 -4 3 -4 -1 -1 -10 4
-11 -3 -20 -23 -29 -20 -9 -28 -18 -24 -28 3 -9 2 -13 -2 -9 -10 8 -36 -14
-29 -24 2 -5 -1 -8 -7 -8 -15 0 -40 -25 -40 -41 0 -7 -3 -9 -7 -6 -3 4 -13 -2
-20 -13 -8 -11 -19 -17 -25 -14 -7 4 -8 2 -4 -4 4 -7 2 -12 -4 -12 -6 0 -8 -5
-4 -12 5 -7 2 -9 -9 -5 -11 4 -18 -1 -22 -14 -4 -10 -11 -16 -17 -13 -7 5 -8
2 -3 -5 7 -13 -32 -48 -48 -43 -5 1 -6 -2 -3 -7 8 -12 -18 -33 -29 -23 -5 4
-5 1 -1 -5 4 -8 -3 -22 -18 -35 -14 -13 -27 -33 -29 -45 -2 -12 -7 -26 -12
-30 -4 -5 -5 -2 0 6 5 9 4 12 -3 7 -7 -4 -12 -14 -12 -22 0 -8 -7 -14 -17 -14
-9 0 -13 -3 -10 -6 4 -4 -9 -22 -29 -40 -19 -19 -33 -34 -30 -34 3 0 -7 -12
-23 -27 -16 -16 -31 -37 -33 -48 -2 -11 -10 -19 -16 -18 -10 3 -17 -16 -13
-39 0 -4 -8 -10 -19 -13 -11 -4 -18 -10 -15 -15 3 -4 -2 -11 -11 -14 -8 -3
-13 -10 -9 -15 3 -6 -1 -13 -9 -18 -8 -4 -15 -12 -16 -18 -4 -21 -35 -65 -46
-65 -7 0 -11 -8 -10 -17 2 -10 -7 -26 -18 -36 -12 -10 -14 -15 -6 -11 13 7 13
6 0 -12 -8 -10 -19 -22 -25 -26 -5 -4 -10 -12 -10 -18 0 -6 -6 -14 -13 -19 -8
-5 -14 -12 -14 -17 -1 -18 -21 -54 -30 -54 -5 0 -8 -8 -6 -17 2 -11 -2 -17
-11 -15 -9 2 -12 -4 -8 -18 3 -11 1 -18 -4 -15 -4 3 -11 -6 -15 -20 -3 -14
-10 -25 -16 -25 -5 0 -8 -8 -6 -17 2 -10 -3 -17 -9 -16 -11 3 -18 -23 -14 -49
0 -4 -5 -5 -13 -2 -8 3 -17 0 -22 -7 -4 -7 -3 -10 4 -5 6 3 13 2 17 -4 3 -5
-2 -10 -11 -10 -10 0 -15 -3 -11 -6 3 -3 -3 -20 -13 -36 -10 -17 -16 -37 -13
-45 3 -8 0 -13 -8 -11 -8 2 -17 -13 -24 -40 -6 -24 -15 -39 -19 -35 -5 4 -6
-2 -3 -15 3 -12 2 -20 -1 -18 -4 2 -13 -2 -20 -10 -10 -11 -10 -14 0 -14 7 0
2 -9 -12 -20 -14 -11 -19 -20 -11 -20 11 0 11 -3 0 -16 -8 -9 -14 -22 -15 -28
0 -6 -2 -17 -2 -24 -1 -7 -6 -11 -11 -8 -5 4 -8 -2 -6 -11 1 -10 -4 -26 -13
-35 -8 -10 -12 -18 -7 -18 4 0 2 -7 -5 -15 -6 -8 -9 -18 -6 -24 4 -5 -3 -12
-14 -16 -11 -4 -18 -11 -15 -16 3 -5 1 -18 -6 -30 -9 -17 -8 -20 2 -13 7 4 3
-7 -10 -24 -12 -18 -19 -32 -16 -32 4 0 0 -11 -9 -25 -9 -14 -12 -25 -6 -25 6
0 3 -11 -6 -25 -8 -13 -13 -29 -9 -35 3 -5 3 -10 -2 -10 -4 0 -13 -11 -20 -25
-6 -14 -7 -23 -2 -19 5 3 6 -2 3 -10 -3 -9 -10 -16 -16 -16 -5 0 -6 -4 -3 -10
3 -5 2 -10 -2 -10 -5 0 -9 -8 -9 -17 -2 -32 -13 -76 -21 -82 -4 -3 -10 -17
-11 -31 -2 -14 -9 -31 -14 -37 -6 -7 -8 -20 -4 -28 3 -9 -1 -27 -10 -41 -9
-13 -13 -24 -9 -24 4 0 2 -6 -4 -13 -6 -8 -8 -17 -4 -20 3 -4 2 -7 -4 -7 -6 0
-11 -10 -12 -22 -1 -44 -4 -58 -14 -58 -5 0 -7 -6 -4 -14 3 -8 1 -16 -4 -18
-5 -2 -11 -23 -12 -48 -1 -25 -9 -50 -17 -58 -13 -10 -12 -11 5 -6 19 5 19 5
1 -10 -10 -8 -15 -19 -12 -24 3 -6 1 -12 -6 -14 -6 -2 -13 -24 -14 -49 -2 -39
-9 -80 -14 -86 -2 -2 -3 -11 -4 -20 -1 -10 -5 -24 -10 -32 -7 -10 -6 -12 3 -6
10 6 11 3 1 -15 -6 -12 -13 -39 -15 -60 -2 -21 -6 -43 -10 -49 -3 -6 0 -11 7
-11 10 0 10 -2 -1 -9 -8 -5 -14 -26 -15 -47 -1 -22 -5 -45 -10 -53 -7 -11 -6
-12 5 -6 11 7 11 5 -1 -10 -13 -16 -15 -141 -15 -987 0 -590 3 -968 9 -968 5
0 6 -3 3 -7 -4 -3 -1 -13 6 -21 10 -13 9 -14 -2 -7 -10 6 -12 4 -5 -6 4 -8 9
-70 10 -139 0 -92 4 -124 13 -122 9 2 9 -3 2 -17 -6 -10 -7 -21 -4 -25 4 -4 8
-59 8 -122 1 -83 5 -118 14 -123 9 -6 10 -10 2 -15 -6 -4 -8 -12 -4 -19 12
-20 10 -58 -4 -53 -7 3 -13 1 -13 -5 0 -5 -23 -32 -51 -60 -31 -31 -49 -56
-45 -64 3 -8 1 -15 -5 -15 -5 0 -19 -9 -31 -20 -13 -11 -16 -20 -9 -20 8 0 5
-9 -8 -26 -11 -15 -18 -30 -15 -35 3 -5 0 -9 -6 -9 -6 0 -8 -4 -5 -10 3 -5 2
-10 -2 -10 -5 0 -10 -8 -11 -17 -1 -10 -3 -31 -5 -46 -2 -16 -10 -33 -18 -38
-11 -7 -11 -9 -1 -9 8 0 10 -5 5 -12 -10 -17 -10 -148 0 -148 5 0 5 -5 2 -10
-4 -6 -3 -9 2 -8 13 5 56 -39 49 -50 -3 -5 2 -9 12 -8 9 0 16 -5 14 -11 -1 -7
4 -13 12 -13 7 0 21 -11 31 -24 10 -13 24 -22 32 -19 7 3 17 -5 22 -18 4 -13
10 -22 13 -19 2 3 12 -2 21 -11 9 -9 13 -19 10 -23 -4 -3 2 -6 11 -6 12 0 16
-5 12 -15 -3 -8 -1 -15 5 -15 5 0 15 -11 21 -25 6 -14 17 -25 24 -25 6 0 15
-7 18 -16 3 -8 11 -12 17 -8 7 4 9 3 6 -3 -4 -6 0 -13 8 -17 8 -3 15 -12 15
-21 0 -8 4 -15 8 -15 4 0 9 -10 9 -22 1 -13 10 -29 20 -36 10 -7 17 -21 15
-31 -1 -9 8 -28 20 -42 13 -14 23 -32 24 -42 3 -56 6 -68 26 -87 12 -11 16
-20 9 -20 -7 0 -9 -5 -5 -12 4 -7 9 -26 10 -43 3 -53 4 -56 17 -49 9 5 9 4 0
-6 -9 -10 -9 -18 -1 -34 6 -12 11 -22 10 -23 -7 -11 0 -23 11 -17 9 6 9 5 0
-8 -7 -8 -10 -18 -6 -22 13 -12 10 -736 -2 -781 -6 -22 -11 -61 -10 -87 0 -27
-3 -48 -7 -48 -4 0 -5 -7 -2 -15 4 -8 2 -15 -3 -15 -5 0 -8 -37 -8 -82 1 -79
-7 -116 -28 -129 -5 -4 -10 -27 -12 -53 -1 -25 -5 -49 -8 -53 -4 -3 -2 -12 5
-20 9 -11 7 -12 -7 -7 -13 5 -16 4 -11 -4 4 -7 1 -14 -6 -17 -8 -3 -13 -21
-13 -44 0 -22 -3 -37 -7 -35 -5 3 -9 -5 -10 -18 -3 -48 -4 -53 -15 -51 -6 1
-10 -5 -8 -15 1 -9 -2 -25 -7 -34 -6 -12 -5 -18 2 -18 6 0 4 -7 -4 -16 -9 -8
-14 -19 -11 -24 3 -5 0 -10 -5 -12 -11 -3 -18 -25 -19 -60 -1 -10 -9 -18 -18
-19 -11 0 -13 -3 -6 -6 10 -4 10 -10 -2 -26 -8 -12 -15 -32 -15 -45 0 -15 -4
-21 -12 -16 -8 5 -9 0 -6 -14 4 -12 3 -20 -2 -17 -4 3 -10 -4 -13 -15 -7 -28
1 -94 12 -98 6 -2 7 -10 4 -18 -3 -8 0 -14 7 -14 7 0 9 -8 5 -20 -3 -11 -2
-20 3 -20 6 0 9 -17 7 -37 -3 -38 19 -98 33 -89 5 3 7 -8 6 -24 -1 -16 4 -40
11 -54 8 -14 11 -26 7 -26 -4 0 -1 -4 7 -9 8 -5 16 -24 18 -43 5 -55 6 -58 15
-58 5 0 7 -4 4 -9 -4 -5 -2 -11 4 -13 5 -1 11 -21 14 -43 3 -22 10 -41 15 -43
5 -2 7 -10 4 -18 -3 -9 1 -14 13 -14 16 0 17 -2 4 -10 -8 -5 -10 -10 -5 -10 6
0 11 -10 12 -22 1 -12 9 -26 18 -30 8 -5 15 -16 15 -24 0 -8 11 -36 26 -63 14
-27 26 -58 27 -69 0 -11 5 -18 9 -16 7 5 12 -10 9 -29 0 -4 3 -7 9 -7 5 0 7
-6 4 -14 -3 -7 1 -20 9 -27 7 -8 12 -20 9 -27 -2 -6 5 -12 15 -12 15 0 16 -2
3 -10 -8 -5 -10 -10 -5 -10 6 0 11 -9 12 -21 2 -23 22 -51 32 -45 3 2 7 -10 7
-27 1 -16 9 -36 18 -43 9 -6 16 -16 15 -20 -4 -17 20 -61 36 -68 9 -3 13 -11
10 -17 -4 -5 1 -17 11 -24 14 -11 15 -14 5 -15 -9 0 -1 -13 20 -32 19 -18 41
-52 48 -75 8 -23 17 -40 21 -38 4 3 11 -10 14 -28 3 -18 15 -39 26 -47 10 -7
16 -18 13 -22 -3 -5 3 -16 13 -23 11 -9 14 -14 7 -15 -7 0 -13 -5 -13 -10 0
-6 4 -9 9 -8 15 5 66 -56 69 -82 1 -14 9 -28 17 -33 9 -4 13 -12 10 -18 -4 -5
-2 -9 4 -9 6 0 19 -10 31 -22 15 -16 17 -24 8 -30 -10 -6 -10 -8 0 -8 6 0 12
-7 12 -16 0 -8 5 -12 10 -9 6 3 10 -1 10 -10 0 -9 4 -14 9 -10 6 3 8 -4 6 -16
-2 -12 -2 -19 2 -16 9 10 44 -13 37 -25 -4 -5 -2 -13 4 -17 6 -3 12 -13 14
-21 2 -8 13 -25 25 -37 13 -12 23 -27 23 -33 0 -6 5 -8 11 -5 6 4 13 -2 16
-14 3 -11 9 -18 14 -15 5 3 9 -4 9 -15 0 -11 7 -27 16 -35 12 -12 12 -16 2
-17 -7 0 -3 -4 10 -9 12 -5 22 -16 22 -25 0 -8 6 -15 14 -15 17 0 59 -55 63
-83 2 -12 11 -28 20 -34 9 -7 13 -13 7 -13 -5 0 2 -6 15 -13 13 -6 22 -16 20
-21 -2 -5 6 -12 19 -17 12 -5 22 -16 22 -24 0 -9 5 -13 11 -10 6 4 13 -2 16
-14 3 -11 9 -19 13 -16 4 3 11 -6 14 -20 4 -14 11 -25 17 -25 6 0 7 -5 4 -10
-3 -6 9 -24 27 -40 18 -17 28 -30 23 -30 -6 0 1 -6 14 -13 13 -6 23 -16 23
-22 -1 -5 10 -16 24 -23 13 -7 22 -17 19 -22 -4 -6 0 -10 8 -10 7 0 31 -19 52
-42 21 -24 42 -42 47 -41 4 2 8 -4 8 -13 0 -8 4 -13 9 -9 6 3 8 -4 6 -15 -2
-12 0 -18 6 -14 6 3 17 -3 25 -15 9 -12 20 -19 25 -16 8 6 10 -1 8 -21 0 -4
10 -12 23 -19 13 -6 22 -17 21 -23 -2 -7 3 -12 11 -12 8 0 18 -9 21 -20 4 -11
10 -18 15 -15 12 7 31 -30 22 -41 -4 -5 0 -3 10 4 14 11 17 10 23 -7 3 -12 11
-21 16 -21 6 0 7 -4 4 -10 -3 -5 1 -10 10 -10 8 0 19 -9 23 -21 5 -11 12 -21
17 -22 6 -1 9 -5 8 -9 -3 -8 13 -12 30 -9 5 1 6 -3 2 -9 -3 -5 1 -13 9 -16 9
-3 16 -13 16 -21 0 -8 4 -11 10 -8 5 3 15 -5 21 -19 7 -14 16 -23 20 -20 11 6
30 -31 21 -42 -4 -5 0 -3 9 4 14 10 18 10 23 -4 3 -9 3 -21 -1 -26 -4 -7 -1
-8 6 -4 14 9 51 -21 51 -41 0 -7 5 -12 12 -10 6 1 17 -8 23 -21 7 -13 15 -23
19 -23 19 2 26 0 23 -9 -3 -12 64 -70 81 -70 6 0 12 -4 12 -10 0 -5 6 -10 14
-10 16 0 76 -53 76 -67 0 -5 11 -16 25 -23 14 -7 25 -20 25 -28 0 -9 3 -13 6
-9 3 3 15 -3 27 -14 11 -10 27 -19 34 -19 8 0 11 -4 8 -10 -3 -5 3 -10 15 -10
12 0 18 -4 15 -10 -3 -5 0 -10 7 -10 17 -1 58 -35 58 -50 0 -6 4 -9 9 -6 5 3
19 -7 32 -23 12 -16 29 -27 36 -24 7 3 13 0 13 -7 0 -6 5 -10 12 -8 17 6 80
-53 74 -68 -3 -8 0 -11 8 -8 7 3 19 -2 26 -11 7 -8 18 -15 25 -15 8 0 15 -5
17 -12 3 -7 9 -8 19 -2 11 7 14 37 14 141 0 86 -4 133 -10 133 -7 0 -11 25
-10 62 0 36 -5 67 -12 74 -10 10 -10 13 0 17 9 4 9 6 0 6 -7 1 -13 6 -13 12 0
5 6 7 13 3 9 -6 9 -4 1 7 -7 9 -12 89 -13 214 -3 236 -3 235 -12 229 -4 -2 -6
26 -5 62 1 40 -3 68 -10 71 -14 5 -17 648 -2 676 6 12 6 17 0 13 -5 -3 -13 1
-16 10 -4 10 -2 13 7 8 8 -6 8 -3 -1 9 -8 9 -11 21 -8 26 4 5 2 12 -4 16 -7 4
-7 12 0 26 8 14 7 19 -1 19 -8 0 -9 4 0 13 8 10 7 17 -1 25 -9 9 -9 12 1 12
10 0 11 3 3 13 -6 7 -14 26 -18 42 -9 37 -14 586 -6 600 4 6 7 15 7 20 1 6 6
9 13 8 8 -2 9 4 3 20 -5 12 -5 32 0 44 6 15 3 23 -8 27 -9 4 -13 13 -9 22 3 8
2 12 -4 9 -19 -12 -27 34 -26 147 1 80 -3 118 -10 118 -13 0 -17 2072 -4 2080
4 3 10 24 14 48 3 24 8 47 11 53 4 5 1 9 -5 9 -8 0 -8 6 0 20 8 14 8 20 0 20
-8 0 -8 6 0 20 8 14 8 20 0 20 -8 0 -8 6 0 20 6 12 7 20 1 20 -5 0 -7 9 -4 20
3 11 10 17 16 13 5 -3 7 -1 3 5 -3 6 -2 13 4 17 6 4 7 13 1 23 -6 11 -6 24 0
35 6 9 6 17 2 17 -5 0 -9 66 -9 148 0 131 -2 149 -19 169 -11 13 -25 23 -33
23 -7 0 -10 5 -7 10 3 6 -2 10 -13 10 -11 0 -27 11 -38 24 -10 14 -21 23 -25
20 -7 -4 -31 12 -65 44 -12 11 -14 11 -15 0 0 -7 -5 -3 -11 10 -6 12 -20 22
-30 22 -10 0 -21 7 -24 15 -4 8 -10 12 -15 9 -6 -3 -25 10 -43 30 -18 20 -35
33 -39 30 -4 -4 -13 -1 -21 5 -8 7 -20 10 -26 6 -6 -4 -10 -3 -9 2 1 4 -1 16
-6 26 -6 14 -10 15 -15 7 -5 -9 -10 -6 -15 9 -3 12 -15 21 -26 21 -11 0 -22 7
-25 15 -4 8 -10 12 -16 9 -5 -3 -21 7 -36 22 -15 16 -38 31 -52 33 -13 1 -32
12 -41 22 -9 10 -26 19 -38 19 -12 0 -19 4 -16 10 3 5 -7 15 -22 22 -15 7 -32
18 -36 25 -5 8 -12 11 -18 8 -5 -4 -9 -1 -9 4 0 6 -7 11 -15 11 -9 0 -18 6
-21 14 -3 8 -11 13 -18 10 -7 -3 -19 3 -27 12 -12 15 -12 17 0 9 10 -5 12 -4
7 4 -4 6 -11 9 -16 6 -4 -3 -13 2 -20 10 -7 8 -18 15 -25 15 -8 0 -15 5 -17
10 -2 6 -13 12 -25 13 -12 0 -19 5 -17 9 3 4 0 8 -6 8 -7 0 -10 7 -7 14 4 10
1 13 -9 9 -7 -3 -14 0 -14 7 0 7 -7 10 -15 6 -9 -3 -20 2 -27 13 -6 11 -17 17
-25 14 -7 -3 -16 2 -19 12 -4 10 -13 14 -22 10 -9 -3 -13 -3 -9 1 9 9 -23 33
-44 34 -9 0 -24 11 -35 24 -10 14 -21 23 -25 20 -7 -4 -31 12 -65 44 -8 7 -14
10 -14 5 -1 -4 -10 3 -20 16 -11 13 -20 18 -20 12 0 -6 -9 -2 -19 8 -11 11
-34 27 -50 36 -17 8 -31 20 -31 26 0 6 -4 7 -10 4 -6 -3 -10 0 -10 7 0 9 -3 9
-10 -2 -8 -13 -10 -12 -10 3 0 9 -7 17 -16 17 -9 0 -29 14 -45 31 -16 17 -33
28 -38 24 -6 -3 -16 3 -22 14 -7 11 -19 17 -27 13 -10 -3 -13 -1 -8 6 4 7 1
12 -8 12 -8 0 -22 9 -30 21 -8 12 -19 18 -25 14 -6 -3 -14 1 -17 9 -3 9 -12
16 -18 16 -7 0 -23 10 -36 23 -14 12 -28 21 -32 19 -5 -1 -8 2 -8 8 0 5 -11
10 -25 10 -14 0 -29 8 -35 20 -6 11 -18 20 -28 20 -9 0 -23 9 -30 20 -7 11
-22 20 -33 20 -14 0 -19 5 -16 15 4 8 3 16 -1 19 -4 3 -8 303 -7 668 0 624 1
663 17 662 10 -1 15 2 12 7 -3 5 -1 9 5 9 5 0 13 -4 16 -10 3 -5 15 -10 26
-10 23 0 71 -44 61 -56 -4 -4 -1 -4 6 0 7 4 14 1 17 -6 3 -8 16 -15 30 -16 22
-2 98 -66 89 -75 -2 -2 10 -4 27 -5 19 0 38 -10 51 -24 11 -13 24 -22 29 -21
5 2 9 -2 9 -7 0 -6 7 -10 15 -10 8 0 15 -5 15 -11 0 -6 7 -9 15 -5 9 3 15 0
15 -9 0 -13 5 -16 25 -15 3 1 13 -6 21 -15 9 -8 21 -12 27 -8 7 3 9 3 5 -2 -8
-8 15 -35 29 -35 15 0 63 -25 63 -32 0 -5 9 -8 19 -8 10 0 22 -7 25 -16 3 -8
10 -12 16 -9 5 3 10 -1 10 -9 0 -9 5 -16 11 -16 5 0 7 6 4 13 -4 6 0 4 8 -5 8
-10 20 -18 26 -18 7 0 10 -4 7 -9 -3 -5 1 -11 9 -15 8 -3 15 0 15 7 1 7 7 1
15 -13 9 -15 15 -19 15 -10 1 12 3 12 14 -2 7 -10 17 -18 21 -18 4 0 19 -9 35
-20 15 -11 30 -17 34 -13 3 3 6 1 6 -5 0 -6 6 -9 13 -6 8 3 20 -3 28 -12 12
-15 12 -17 0 -9 -10 5 -12 4 -7 -4 4 -6 11 -9 16 -6 4 3 13 -2 20 -10 7 -8 19
-15 26 -15 8 0 14 -4 14 -10 0 -5 6 -10 14 -10 19 0 67 -26 78 -42 6 -11 10
-11 17 1 7 11 10 9 16 -9 5 -16 9 -19 15 -10 6 10 11 8 21 -8 7 -11 19 -18 26
-15 7 3 13 0 13 -7 0 -6 4 -9 9 -6 5 3 11 -1 15 -9 3 -8 15 -15 28 -15 12 0
31 -9 43 -20 12 -11 33 -21 47 -22 15 -1 25 -5 23 -8 -1 -3 3 -11 11 -18 8 -7
14 -10 14 -6 0 3 8 0 17 -7 11 -9 14 -10 9 -2 -5 9 -2 11 8 7 9 -3 16 -10 16
-15 0 -10 44 -30 72 -32 9 -1 15 -4 13 -7 -1 -3 3 -11 11 -18 8 -7 14 -10 14
-6 0 3 8 0 17 -7 11 -9 14 -10 9 -2 -5 9 -2 11 8 7 9 -3 16 -10 16 -16 0 -5 5
-6 10 -3 6 3 10 -1 10 -10 0 -9 6 -15 13 -14 25 3 38 -1 32 -11 -3 -6 1 -7 9
-4 9 3 16 1 16 -5 0 -6 3 -10 8 -9 14 3 102 -35 102 -44 0 -5 7 -8 15 -8 8 0
30 -9 50 -20 20 -11 45 -20 56 -20 11 0 22 -7 26 -16 4 -11 8 -12 13 -4 5 8
11 8 21 -2 21 -21 49 -29 49 -15 1 7 7 1 15 -13 8 -14 14 -19 15 -11 0 10 7 8
21 -8 15 -16 24 -19 29 -11 5 8 9 7 13 -4 4 -9 14 -16 24 -16 29 0 94 -26 104
-41 7 -12 9 -12 9 0 0 11 3 11 17 0 9 -8 26 -14 37 -14 12 -1 27 -4 34 -8 6
-5 12 -5 12 0 0 4 4 3 8 -2 12 -17 77 -45 80 -35 2 6 10 3 19 -5 8 -8 19 -13
24 -10 12 8 51 -14 44 -25 -3 -6 0 -7 8 -4 8 3 20 -3 28 -12 12 -16 12 -17 -1
-10 -12 6 -11 5 1 -6 27 -22 35 -51 34 -120 0 -42 4 -69 11 -72 6 -2 15 -19
19 -38 8 -37 14 -587 6 -603 -3 -5 -6 -14 -7 -20 -5 -27 -10 -40 -19 -50 -5
-7 -10 -58 -10 -116 0 -57 -3 -106 -7 -110 -4 -3 -9 -23 -10 -45 -2 -21 -7
-42 -12 -46 -6 -4 -11 -55 -12 -115 -1 -59 -3 -109 -4 -110 -2 -2 -4 -7 -5
-13 -1 -5 -4 -13 -5 -17 -2 -5 -4 -12 -5 -18 -2 -5 -4 -12 -5 -15 -3 -9 -10
-44 -14 -71 -1 -14 -6 -31 -10 -38 -4 -6 -1 -11 6 -11 9 0 10 -2 2 -8 -7 -4
-14 -20 -15 -37 -2 -16 -8 -33 -13 -37 -6 -4 -4 -14 5 -24 8 -10 9 -15 3 -11
-14 8 -21 -15 -20 -63 1 -19 -2 -37 -6 -41 -4 -3 -9 -18 -11 -35 -2 -16 -7
-35 -11 -42 -4 -6 -8 -36 -8 -66 -1 -30 -5 -53 -9 -50 -5 2 -6 -5 -4 -16 2
-11 -3 -24 -12 -28 -20 -12 -22 -170 -1 -183 7 -5 9 -9 5 -9 -12 0 20 -30 32
-30 6 0 11 -7 11 -17 0 -9 3 -13 6 -10 10 10 45 -35 39 -50 -2 -8 0 -11 5 -8
6 3 10 -3 10 -14 0 -12 5 -21 10 -21 6 0 10 -7 10 -16 0 -8 3 -13 8 -11 4 3
13 -1 20 -9 7 -8 10 -14 6 -14 -4 0 6 -11 22 -25 16 -14 32 -25 37 -25 4 0 7
-4 7 -10 0 -14 37 -50 45 -42 3 3 8 -4 12 -16 3 -12 9 -20 13 -17 5 3 11 -4
15 -15 3 -11 11 -19 17 -17 6 1 14 -8 17 -21 3 -13 9 -23 14 -23 22 2 28 0 22
-9 -3 -5 1 -10 9 -10 8 0 18 -9 21 -20 3 -11 12 -20 20 -20 8 0 17 -9 20 -20
3 -11 12 -20 20 -20 13 0 25 -24 31 -60 2 -8 8 -16 14 -18 5 -2 8 -8 4 -13 -3
-5 1 -9 9 -9 8 0 17 -9 20 -21 3 -12 10 -18 16 -15 5 4 13 -3 16 -15 4 -11 9
-18 12 -15 7 6 43 -32 43 -46 0 -4 6 -8 13 -8 6 0 23 -14 36 -30 24 -31 42
-32 36 -2 -2 9 -4 17 -5 17 -1 0 -3 10 -4 22 -2 13 0 23 4 23 4 0 7 7 7 15 0
8 -4 15 -9 15 -5 0 -4 8 1 19 6 10 7 21 4 25 -9 9 -11 46 -3 46 9 0 6 32 -4
48 -4 7 -2 12 4 12 6 0 8 5 4 12 -11 18 -12 48 -2 48 5 0 4 9 -2 20 -6 11 -7
20 -2 20 10 0 9 30 -2 48 -4 7 -2 12 4 12 6 0 8 5 4 12 -10 16 -13 48 -4 48 8
0 6 37 -3 46 -3 4 -2 15 4 25 7 14 6 19 -2 19 -9 0 -9 3 0 14 7 8 8 17 3 20
-5 3 -6 26 -2 51 4 25 3 45 -1 45 -4 0 -4 13 1 30 5 18 5 32 -1 35 -5 4 -5 14
-1 23 7 15 8 37 2 45 -5 6 -6 47 0 47 4 0 7 7 7 15 0 8 -4 15 -9 15 -5 0 -4 9
2 19 6 13 7 22 0 26 -6 3 -6 15 0 30 5 13 5 27 1 29 -5 3 -5 24 -1 46 4 22 5
40 1 40 -3 0 -6 14 -6 30 0 17 3 30 6 30 8 0 5 33 -5 48 -4 7 -2 12 4 12 6 0
8 5 4 12 -11 18 -12 48 -2 48 5 0 4 9 -2 20 -6 11 -7 20 -2 20 10 0 9 30 -2
48 -4 7 -2 12 4 12 6 0 8 5 4 12 -10 16 -13 48 -4 48 4 0 7 7 7 15 0 8 -4 15
-9 15 -5 0 -4 8 1 19 6 10 7 21 4 25 -9 9 -11 46 -3 46 9 0 6 32 -4 48 -4 7
-2 12 4 12 6 0 8 5 4 12 -10 16 -13 48 -4 48 4 0 7 7 7 15 0 8 -4 15 -9 15 -5
0 -4 9 2 19 6 12 6 22 1 26 -6 3 -6 17 -1 35 5 17 5 30 0 30 -5 0 -5 13 0 30
5 18 5 32 -1 35 -5 4 -5 14 -1 23 7 15 8 37 2 45 -5 6 -6 47 0 47 4 0 7 7 7
15 0 8 -4 15 -9 15 -5 0 -4 8 1 19 6 10 7 21 4 25 -9 9 -11 46 -3 46 9 0 6 32
-4 48 -4 7 -2 12 4 12 6 0 8 5 4 12 -11 18 -12 48 -2 48 5 0 4 9 -2 20 -6 11
-7 20 -2 20 10 0 9 30 -2 48 -4 7 -2 12 4 12 6 0 8 5 4 12 -10 16 -13 48 -4
48 8 0 6 37 -3 46 -3 4 -2 15 4 25 7 14 6 19 -2 19 -9 0 -9 3 0 14 7 8 8 17 3
20 -5 3 -6 26 -2 51 4 25 3 45 -1 45 -4 0 -4 13 1 30 5 18 5 32 -1 35 -5 4 -5
14 -1 23 7 15 8 37 2 45 -5 6 -6 47 0 47 4 0 7 7 7 15 0 8 -4 15 -9 15 -5 0
-4 9 2 19 6 13 7 22 0 26 -6 3 -6 15 0 30 5 13 5 27 1 29 -5 3 -5 24 -1 46 4
22 5 40 1 40 -3 0 -6 14 -6 30 0 17 3 30 6 30 8 0 5 33 -5 48 -4 7 -2 12 4 12
6 0 8 5 4 12 -11 18 -12 48 -2 48 5 0 4 9 -2 20 -6 11 -7 20 -2 20 10 0 9 30
-2 48 -4 7 -2 12 4 12 6 0 8 5 4 12 -10 16 -13 48 -4 48 4 0 7 7 7 15 0 8 -4
15 -9 15 -5 0 -4 8 1 19 6 10 7 21 4 25 -9 9 -11 46 -3 46 9 0 6 32 -4 48 -4
7 -2 12 4 12 6 0 8 5 4 12 -10 16 -13 48 -4 48 4 0 7 7 7 15 0 8 -4 15 -9 15
-5 0 -4 9 2 19 6 12 6 22 1 26 -6 3 -6 17 -1 35 5 17 5 30 0 30 -5 0 -5 13 0
30 5 18 5 32 -1 35 -5 4 -5 14 -1 23 7 15 8 37 2 45 -5 6 -6 47 0 47 4 0 7 7
7 15 0 8 -4 15 -9 15 -5 0 -4 8 1 19 6 10 7 21 4 25 -9 9 -11 46 -3 46 9 0 6
32 -4 48 -4 7 -2 12 4 12 6 0 8 5 4 12 -11 18 -12 48 -2 48 5 0 4 9 -2 20 -6
11 -7 20 -2 20 10 0 9 30 -2 48 -4 7 -2 12 4 12 6 0 8 5 4 12 -10 16 -13 48
-4 48 8 0 6 37 -3 46 -3 4 -2 15 4 25 7 14 6 19 -2 19 -9 0 -9 3 0 14 7 8 8
17 3 20 -5 3 -6 26 -2 51 4 25 3 45 -1 45 -4 0 -4 13 1 30 5 18 5 32 -1 35 -5
4 -5 14 -1 23 7 15 8 37 2 45 -5 6 -6 47 0 47 4 0 7 7 7 15 0 8 -4 15 -9 15
-5 0 -4 9 2 19 6 13 7 22 0 26 -6 3 -6 15 0 30 5 13 5 27 1 29 -5 3 -5 24 -1
46 4 22 5 40 1 40 -3 0 -6 14 -6 30 0 17 3 30 6 30 8 0 5 33 -5 48 -4 7 -2 12
4 12 6 0 8 5 4 12 -11 18 -12 48 -2 48 5 0 4 9 -2 20 -6 11 -7 20 -2 20 10 0
9 30 -2 48 -4 7 -2 12 4 12 6 0 8 5 4 12 -11 18 -12 48 -2 48 5 0 4 9 -2 20
-6 11 -7 20 -2 20 10 0 9 30 -2 48 -4 7 -2 12 4 12 6 0 8 5 4 12 -11 18 -12
48 -2 48 5 0 4 9 -2 20 -6 11 -7 20 -2 20 10 0 9 30 -2 48 -4 7 -2 12 4 12 6
0 8 5 4 12 -10 16 -13 48 -4 48 8 0 6 37 -3 46 -3 4 -2 15 4 25 7 14 6 19 -2
19 -9 0 -9 3 0 14 7 8 8 17 3 20 -5 3 -6 26 -2 51 4 25 3 45 -1 45 -4 0 -4 13
1 30 5 18 5 32 -1 35 -5 4 -5 14 -1 23 7 15 8 37 2 45 -5 6 -6 47 0 47 4 0 7
7 7 15 0 8 -4 15 -9 15 -5 0 -4 9 2 19 6 13 7 22 0 26 -6 3 -6 15 0 30 5 13 5
27 1 29 -5 3 -5 24 -1 46 4 22 5 40 1 40 -3 0 -6 14 -6 30 0 17 3 30 6 30 8 0
5 33 -5 48 -4 7 -2 12 4 12 6 0 8 5 4 12 -11 18 -12 48 -2 48 5 0 4 9 -2 20
-6 11 -7 20 -2 20 10 0 9 30 -2 48 -4 7 -2 12 4 12 6 0 8 5 4 12 -10 16 -13
48 -4 48 4 0 7 7 7 15 0 8 -4 15 -9 15 -5 0 -4 8 1 19 6 10 7 21 4 25 -9 9
-11 46 -3 46 9 0 6 32 -4 48 -4 7 -2 12 4 12 6 0 8 5 4 12 -10 16 -13 48 -4
48 4 0 7 7 7 15 0 8 -4 15 -9 15 -5 0 -4 9 2 19 6 12 6 22 1 26 -6 3 -6 17 -1
35 5 17 5 30 0 30 -5 0 -5 13 0 30 5 18 5 32 -1 35 -5 4 -5 14 -1 23 7 15 8
37 2 45 -5 6 -6 47 0 47 4 0 7 7 7 15 0 8 -4 15 -9 15 -5 0 -4 8 1 19 6 10 7
21 4 25 -9 9 -11 46 -3 46 9 0 6 32 -4 48 -4 7 -2 12 4 12 6 0 8 5 4 12 -11
18 -12 48 -2 48 5 0 4 9 -2 20 -6 11 -7 20 -2 20 10 0 9 30 -2 48 -4 7 -2 12
4 12 6 0 8 5 4 12 -10 16 -13 48 -4 48 8 0 6 37 -3 46 -3 4 -2 15 4 25 7 14 6
19 -2 19 -9 0 -9 3 0 14 7 8 8 17 3 20 -5 3 -6 26 -2 51 4 25 3 45 -1 45 -4 0
-4 13 1 30 5 18 5 32 -1 35 -5 4 -5 14 -1 23 7 15 8 37 2 45 -5 6 -6 47 0 47
4 0 7 7 7 15 0 8 -4 15 -9 15 -5 0 -4 9 2 19 6 13 7 22 0 26 -6 3 -6 15 0 30
5 13 5 27 1 29 -5 3 -5 24 -1 46 4 22 5 40 1 40 -3 0 -6 14 -6 30 0 17 3 30 6
30 8 0 5 33 -5 48 -4 7 -2 12 4 12 6 0 8 5 4 12 -11 18 -12 48 -2 48 5 0 4 9
-2 20 -6 11 -7 20 -2 20 10 0 9 30 -2 48 -4 7 -2 12 4 12 6 0 8 5 4 12 -10 16
-13 48 -4 48 4 0 7 7 7 15 0 8 -4 15 -9 15 -5 0 -4 8 1 19 6 10 7 21 4 25 -9
9 -11 46 -3 46 9 0 6 32 -4 48 -4 7 -2 12 4 12 6 0 8 5 4 12 -10 16 -13 48 -4
48 4 0 7 7 7 15 0 8 -4 15 -9 15 -5 0 -4 9 2 19 6 12 6 22 1 26 -6 3 -6 17 -1
35 5 17 5 30 0 30 -5 0 -5 13 0 30 5 18 5 32 -1 35 -5 4 -5 14 -1 23 7 15 8
37 2 45 -5 6 -6 47 0 47 4 0 7 7 7 15 0 8 -4 15 -9 15 -5 0 -4 8 1 19 6 10 7
21 4 25 -9 9 -11 46 -3 46 9 0 6 32 -4 48 -4 7 -2 12 4 12 6 0 8 5 4 12 -11
18 -12 48 -2 48 5 0 4 9 -2 20 -6 11 -7 20 -2 20 10 0 9 30 -2 48 -4 7 -2 12
4 12 6 0 8 5 4 12 -10 16 -13 48 -4 48 8 0 6 37 -3 46 -3 4 -2 15 4 25 7 14 6
19 -2 19 -9 0 -9 3 0 14 7 8 8 17 3 20 -5 3 -6 26 -2 51 4 25 3 45 -1 45 -4 0
-4 13 1 30 5 18 5 32 -1 35 -5 4 -5 14 -1 23 7 15 8 37 2 45 -5 6 -6 47 0 47
4 0 7 7 7 15 0 8 -4 15 -9 15 -5 0 -4 9 2 19 6 13 7 22 0 26 -6 3 -6 15 0 30
5 13 5 27 1 29 -5 3 -5 24 -1 46 4 22 4 40 -1 40 -4 0 -4 13 1 30 5 18 5 32
-1 35 -5 4 -5 14 1 25 6 12 7 21 0 25 -5 3 -6 15 0 29 4 12 4 29 0 36 -5 8 -5
19 1 26 7 8 6 14 -1 19 -8 5 -8 10 0 20 18 22 -16 26 -40 5z m-1100 -8966 c0
-8 -19 -13 -24 -6 -3 5 1 9 9 9 8 0 15 -2 15 -3z"/>
<path d="M7319 14303 c-1 -5 0 -19 1 -32 1 -14 -2 -21 -9 -17 -7 4 -8 1 -5 -8
3 -9 11 -13 17 -9 6 4 7 1 1 -8 -5 -8 -9 -21 -9 -29 0 -8 -4 -20 -8 -27 -4 -6
-2 -15 4 -19 8 -5 9 -3 4 6 -6 9 -4 11 4 5 9 -5 9 -11 3 -17 -6 -6 -8 -17 -5
-26 4 -10 2 -13 -5 -8 -8 5 -10 2 -6 -8 3 -9 11 -13 18 -9 6 4 5 -1 -3 -10 -7
-9 -10 -17 -5 -17 5 0 2 -5 -6 -10 -11 -7 -11 -10 -2 -10 7 0 11 -4 7 -9 -3
-5 -1 -12 4 -16 6 -3 8 -12 5 -20 -4 -8 -10 -12 -15 -9 -5 3 -6 -2 -3 -10 3
-9 11 -13 16 -10 7 4 7 0 0 -12 -5 -11 -7 -25 -4 -33 2 -8 0 -11 -6 -7 -6 4
-8 -2 -5 -14 3 -11 10 -17 17 -13 6 4 5 0 -2 -9 -9 -11 -10 -18 -2 -23 6 -3 8
-11 4 -16 -11 -18 -14 -58 -5 -64 6 -3 8 -12 5 -20 -4 -8 -10 -12 -15 -9 -5 3
-6 -2 -3 -10 3 -9 11 -13 16 -10 7 4 7 0 0 -12 -5 -11 -7 -25 -4 -33 2 -8 0
-11 -6 -7 -6 4 -8 -2 -5 -14 3 -11 9 -17 14 -14 5 3 6 -2 3 -10 -3 -9 -10 -13
-15 -10 -5 3 -6 -2 -3 -10 3 -9 11 -13 18 -9 7 4 7 1 -1 -9 -7 -8 -10 -18 -6
-21 3 -4 0 -7 -7 -7 -9 0 -8 -5 5 -13 11 -9 14 -16 7 -21 -6 -3 -9 -18 -6 -32
3 -16 1 -23 -6 -19 -13 8 0 -28 14 -37 7 -5 7 -8 -2 -8 -7 0 -10 -4 -7 -10 3
-5 0 -10 -7 -10 -10 0 -10 -2 -1 -8 7 -5 10 -19 7 -36 -3 -17 -1 -25 6 -21 6
3 7 0 4 -9 -3 -9 -11 -13 -18 -9 -7 4 -7 1 1 -9 7 -8 10 -18 6 -22 -4 -4 -1
-11 7 -16 11 -7 12 -10 2 -10 -7 0 -10 -4 -7 -10 3 -5 0 -10 -7 -10 -10 0 -10
-2 -1 -8 7 -5 10 -19 7 -36 -3 -17 -1 -25 6 -21 6 3 7 0 4 -9 -3 -9 -11 -13
-18 -9 -8 5 -8 3 0 -8 13 -17 16 -62 4 -54 -4 3 -6 -4 -3 -15 3 -11 10 -17 17
-13 6 4 5 0 -2 -9 -9 -11 -10 -18 -2 -23 6 -3 8 -11 4 -16 -11 -18 -14 -58 -5
-64 6 -3 8 -12 5 -20 -4 -8 -10 -12 -15 -9 -5 3 -6 -2 -3 -10 3 -9 11 -13 16
-10 6 4 7 0 1 -12 -11 -23 -11 -34 1 -53 6 -10 5 -12 -2 -7 -8 5 -10 -5 -7
-29 3 -20 1 -34 -4 -31 -5 4 -7 -3 -4 -14 3 -11 10 -17 17 -13 6 4 5 0 -2 -9
-9 -11 -10 -18 -2 -23 6 -3 8 -11 4 -16 -3 -5 -7 -21 -10 -35 -3 -19 -1 -24 8
-18 10 6 10 5 2 -7 -6 -8 -10 -24 -8 -37 2 -13 0 -21 -4 -18 -11 7 -8 -31 3
-41 4 -5 5 -2 0 6 -5 9 -4 12 3 7 6 -4 9 -13 6 -21 -4 -8 -11 -12 -18 -8 -7 4
-6 1 2 -9 7 -8 10 -23 6 -32 -4 -10 -1 -16 7 -16 11 0 11 -3 -1 -10 -8 -5 -10
-10 -5 -10 6 0 3 -5 -5 -10 -10 -7 -11 -10 -2 -10 8 0 11 -10 7 -31 -4 -19 -2
-28 5 -24 6 3 7 0 4 -9 -3 -9 -11 -13 -18 -9 -7 4 -7 1 1 -9 7 -8 10 -18 6
-22 -4 -4 -1 -11 7 -16 11 -7 12 -10 2 -10 -7 0 -10 -4 -7 -10 3 -5 0 -10 -7
-10 -10 0 -10 -2 -1 -8 7 -5 10 -19 7 -36 -3 -17 -1 -25 6 -21 6 3 7 0 4 -9
-3 -9 -11 -13 -18 -9 -6 3 -6 1 2 -8 14 -16 16 -33 2 -24 -6 3 -7 -1 -4 -9 3
-9 11 -13 18 -9 6 4 5 -1 -3 -10 -7 -9 -10 -17 -5 -17 5 0 2 -5 -6 -10 -11 -7
-11 -10 -2 -10 7 0 11 -4 7 -9 -3 -5 -1 -12 4 -16 6 -3 8 -12 5 -20 -4 -8 -10
-12 -15 -9 -5 3 -6 -2 -3 -10 3 -9 11 -13 16 -10 7 4 7 0 0 -12 -5 -11 -7 -25
-4 -33 2 -8 0 -11 -6 -7 -6 4 -8 -2 -5 -14 3 -11 10 -17 17 -13 6 4 5 0 -2 -9
-9 -11 -10 -18 -2 -23 6 -3 8 -11 4 -16 -11 -18 -14 -58 -5 -64 6 -3 8 -12 5
-20 -4 -8 -10 -12 -15 -9 -5 3 -6 -2 -3 -10 3 -9 11 -13 16 -10 7 4 7 0 0 -12
-5 -11 -7 -25 -4 -33 2 -8 0 -11 -6 -7 -6 4 -8 -2 -5 -14 3 -11 9 -17 14 -14
5 3 6 -2 3 -10 -3 -9 -10 -13 -15 -10 -5 3 -6 -2 -3 -10 3 -9 11 -13 18 -9 7
4 7 1 -1 -9 -7 -8 -10 -18 -6 -21 3 -4 0 -7 -7 -7 -9 0 -8 -5 5 -13 11 -9 14
-16 7 -21 -6 -3 -9 -18 -6 -32 3 -16 1 -23 -6 -19 -13 8 0 -28 14 -37 7 -5 7
-8 -2 -8 -7 0 -10 -4 -7 -10 3 -5 0 -10 -7 -10 -10 0 -10 -2 -1 -8 7 -5 10
-19 7 -36 -3 -17 -1 -25 6 -21 6 3 7 0 4 -9 -3 -9 -11 -13 -18 -9 -7 4 -7 1 1
-9 7 -8 10 -18 6 -22 -4 -4 -1 -11 7 -16 11 -7 12 -10 2 -10 -7 0 -10 -4 -7
-10 3 -5 0 -10 -7 -10 -10 0 -10 -2 -1 -8 7 -5 10 -19 7 -36 -3 -17 -1 -25 6
-21 6 3 7 0 4 -9 -3 -9 -11 -13 -18 -9 -8 5 -8 3 0 -8 13 -17 16 -62 4 -54 -4
3 -6 -4 -3 -15 3 -11 10 -17 17 -13 6 4 5 0 -2 -9 -9 -11 -10 -18 -2 -23 6 -3
8 -11 4 -16 -11 -18 -14 -58 -5 -64 6 -3 8 -12 5 -20 -4 -8 -10 -12 -15 -9 -5
3 -6 -2 -3 -10 3 -9 11 -13 16 -10 6 4 7 0 1 -12 -11 -23 -11 -34 1 -53 6 -10
5 -12 -2 -7 -8 5 -10 -5 -7 -29 3 -20 1 -34 -4 -31 -5 4 -7 -3 -4 -14 3 -11
10 -17 17 -13 6 4 5 0 -2 -9 -9 -11 -10 -18 -2 -23 6 -3 8 -11 4 -16 -3 -5 -7
-21 -10 -35 -3 -19 -1 -24 8 -18 10 6 10 5 2 -7 -6 -8 -10 -24 -8 -37 2 -13 0
-21 -4 -18 -11 7 -8 -31 3 -41 4 -5 5 -2 0 6 -5 9 -4 12 3 7 6 -4 9 -13 6 -21
-4 -8 -11 -12 -18 -8 -7 4 -6 1 2 -9 7 -8 10 -23 6 -32 -4 -10 -1 -16 7 -16
11 0 11 -3 -1 -10 -8 -5 -10 -10 -5 -10 6 0 3 -5 -5 -10 -10 -7 -11 -10 -2
-10 8 0 11 -10 7 -31 -4 -19 -2 -28 5 -24 6 3 7 0 4 -9 -3 -9 -11 -13 -18 -9
-7 4 -7 1 1 -9 7 -8 10 -18 6 -22 -4 -4 -1 -11 7 -16 11 -7 12 -10 2 -10 -7 0
-10 -4 -7 -10 3 -5 0 -10 -7 -10 -10 0 -10 -2 -1 -8 7 -5 10 -19 7 -36 -3 -17
-1 -25 6 -21 6 3 7 0 4 -9 -3 -9 -11 -13 -18 -9 -6 3 -6 1 2 -8 14 -16 16 -33
2 -24 -6 3 -7 -1 -4 -9 3 -9 11 -13 18 -9 6 4 5 -1 -3 -10 -7 -9 -10 -17 -5
-17 5 0 2 -5 -6 -10 -11 -7 -11 -10 -2 -10 7 0 11 -4 7 -9 -3 -5 -1 -12 4 -16
6 -3 8 -12 5 -20 -4 -8 -10 -12 -15 -9 -5 3 -6 -2 -3 -10 3 -9 11 -13 16 -10
7 4 7 0 0 -12 -5 -11 -7 -25 -4 -33 2 -8 0 -11 -6 -7 -6 4 -8 -2 -5 -14 3 -11
10 -17 17 -13 6 4 5 0 -2 -9 -9 -11 -10 -18 -2 -23 6 -3 8 -11 4 -16 -11 -18
-14 -58 -5 -64 6 -3 8 -12 5 -20 -4 -8 -10 -12 -15 -9 -5 3 -6 -2 -3 -10 3 -9
11 -13 16 -10 7 4 7 0 0 -12 -5 -11 -7 -25 -4 -33 2 -8 0 -11 -6 -7 -6 4 -8
-2 -5 -14 3 -11 9 -17 14 -14 5 3 6 -2 3 -10 -3 -9 -10 -13 -15 -10 -5 3 -6
-2 -3 -10 3 -9 11 -13 18 -9 7 4 7 1 -1 -9 -7 -8 -10 -18 -6 -21 3 -4 0 -7 -7
-7 -9 0 -8 -5 5 -13 11 -9 14 -16 7 -21 -6 -3 -9 -18 -6 -32 3 -16 1 -23 -6
-19 -13 8 0 -28 14 -37 7 -5 7 -8 -2 -8 -7 0 -10 -4 -7 -10 3 -5 0 -10 -7 -10
-10 0 -10 -2 -1 -8 7 -5 10 -19 7 -36 -3 -17 -1 -25 6 -21 6 3 7 0 4 -9 -3 -9
-11 -13 -18 -9 -7 4 -7 1 1 -9 7 -8 10 -18 6 -22 -4 -4 -1 -11 7 -16 11 -7 12
-10 2 -10 -7 0 -10 -4 -7 -10 3 -5 0 -10 -7 -10 -10 0 -10 -2 -1 -8 7 -5 10
-19 7 -36 -3 -17 -1 -25 6 -21 6 3 7 0 4 -9 -3 -9 -11 -13 -18 -9 -7 4 -7 1 1
-9 7 -8 10 -18 6 -22 -4 -4 -1 -11 7 -16 11 -7 12 -10 2 -10 -7 0 -10 -4 -7
-10 3 -5 0 -10 -7 -10 -10 0 -10 -2 -1 -8 7 -5 10 -19 7 -36 -3 -17 -1 -25 6
-21 6 3 7 0 4 -9 -3 -9 -11 -13 -18 -9 -7 4 -7 1 1 -9 7 -8 10 -18 6 -22 -4
-4 -1 -11 7 -16 11 -7 12 -10 2 -10 -7 0 -10 -4 -7 -10 3 -5 0 -10 -7 -10 -10
0 -10 -2 -1 -8 7 -5 10 -19 7 -36 -3 -17 -1 -25 6 -21 6 3 7 0 4 -9 -3 -9 -11
-13 -18 -9 -6 3 -6 1 2 -8 14 -16 16 -33 2 -24 -6 3 -7 -1 -4 -9 3 -9 11 -13
18 -9 6 4 5 -1 -3 -10 -7 -9 -10 -17 -5 -17 5 0 2 -5 -6 -10 -11 -7 -11 -10
-2 -10 7 0 11 -4 7 -9 -3 -5 -1 -12 4 -16 6 -3 8 -12 5 -20 -4 -8 -10 -12 -15
-9 -5 3 -6 -2 -3 -10 3 -9 11 -13 16 -10 7 4 7 0 0 -12 -5 -11 -7 -25 -4 -33
2 -8 0 -11 -6 -7 -6 4 -8 -2 -5 -14 3 -11 10 -17 17 -13 6 4 5 0 -2 -9 -9 -11
-10 -18 -2 -23 6 -3 8 -11 4 -16 -11 -18 -14 -58 -5 -64 6 -3 8 -12 5 -20 -4
-8 -10 -12 -15 -9 -5 3 -6 -2 -3 -10 3 -9 11 -13 16 -10 7 4 7 0 0 -12 -5 -11
-7 -25 -4 -33 2 -8 0 -11 -6 -7 -6 4 -8 -2 -5 -14 3 -11 9 -17 14 -14 5 3 6
-2 3 -10 -3 -9 -10 -13 -15 -10 -5 3 -6 -2 -3 -10 3 -9 11 -13 18 -9 7 4 7 1
-1 -9 -7 -8 -10 -18 -6 -21 3 -4 0 -7 -7 -7 -9 0 -8 -5 5 -13 11 -9 14 -16 7
-21 -6 -3 -9 -18 -6 -32 3 -16 1 -23 -6 -19 -13 8 0 -28 14 -37 7 -5 7 -8 -2
-8 -7 0 -10 -4 -7 -10 3 -5 0 -10 -7 -10 -10 0 -10 -2 -1 -8 7 -5 10 -19 7
-36 -3 -17 -1 -25 6 -21 6 3 7 0 4 -9 -3 -9 -11 -13 -18 -9 -7 4 -7 1 1 -9 7
-8 10 -18 6 -22 -4 -4 -1 -11 7 -16 11 -7 12 -10 2 -10 -7 0 -10 -4 -7 -10 3
-5 0 -10 -7 -10 -10 0 -10 -2 -1 -8 7 -5 10 -19 7 -36 -3 -17 -1 -25 6 -21 6
3 7 0 4 -9 -3 -9 -11 -13 -18 -9 -8 5 -8 3 0 -8 13 -17 16 -62 4 -54 -4 3 -6
-4 -3 -15 3 -11 10 -17 17 -13 6 4 5 0 -2 -9 -9 -11 -10 -18 -2 -23 6 -3 8
-11 4 -16 -11 -18 -14 -58 -5 -64 6 -3 8 -12 5 -20 -4 -8 -10 -12 -15 -9 -5 3
-6 -2 -3 -10 3 -9 11 -13 16 -10 6 4 7 0 1 -12 -11 -23 -11 -34 1 -53 6 -10 5
-12 -2 -7 -8 5 -10 -5 -7 -29 3 -20 1 -34 -4 -31 -5 4 -7 -3 -4 -14 3 -11 10
-17 17 -13 6 4 5 0 -2 -9 -9 -11 -10 -18 -2 -23 6 -3 8 -11 4 -16 -3 -5 -7
-21 -10 -35 -3 -19 -1 -24 8 -18 10 6 10 5 2 -7 -6 -8 -10 -24 -8 -37 2 -13 0
-21 -4 -18 -11 7 -8 -31 3 -41 4 -5 5 -2 0 6 -5 9 -4 12 3 7 6 -4 9 -13 6 -21
-4 -8 -11 -12 -18 -8 -7 4 -6 1 2 -9 7 -8 10 -23 6 -32 -4 -10 -1 -16 7 -16
11 0 11 -3 -1 -10 -8 -5 -10 -10 -5 -10 6 0 3 -5 -5 -10 -10 -7 -11 -10 -2
-10 8 0 11 -10 7 -31 -4 -19 -2 -28 5 -24 6 3 7 0 4 -9 -3 -9 -11 -13 -18 -9
-7 4 -7 1 1 -9 7 -8 10 -18 6 -22 -4 -4 -1 -11 7 -16 11 -7 12 -10 2 -10 -7 0
-10 -4 -7 -10 3 -5 0 -10 -7 -10 -10 0 -10 -2 -1 -8 7 -5 10 -19 7 -36 -3 -17
-1 -25 6 -21 6 3 7 0 4 -9 -3 -9 -11 -13 -18 -9 -6 3 -6 1 2 -8 14 -16 16 -33
2 -24 -6 3 -7 -1 -4 -9 3 -9 11 -13 18 -9 6 4 5 -1 -3 -10 -7 -9 -10 -17 -5
-17 5 0 2 -5 -6 -10 -11 -7 -11 -10 -2 -10 7 0 11 -4 7 -9 -3 -5 -1 -12 4 -16
6 -3 8 -12 5 -20 -4 -8 -10 -12 -15 -9 -5 3 -6 -2 -3 -10 3 -9 11 -13 16 -10
7 4 7 0 0 -12 -5 -11 -7 -25 -4 -33 2 -8 0 -11 -6 -7 -6 4 -8 -2 -5 -14 3 -11
10 -17 17 -13 6 4 5 0 -2 -9 -9 -11 -10 -18 -2 -23 6 -3 8 -11 4 -16 -11 -18
-14 -58 -5 -64 6 -3 8 -12 5 -20 -4 -8 -10 -12 -15 -9 -5 3 -6 -2 -3 -10 3 -9
11 -13 16 -10 7 4 7 0 0 -12 -5 -11 -7 -25 -4 -33 2 -8 0 -11 -6 -7 -6 4 -8
-2 -5 -14 3 -11 9 -17 14 -14 5 3 6 -2 3 -10 -3 -9 -10 -13 -15 -10 -5 3 -6
-2 -3 -10 3 -9 11 -13 18 -9 7 4 7 1 -1 -9 -7 -8 -10 -18 -6 -21 3 -4 0 -7 -7
-7 -9 0 -8 -5 5 -13 11 -9 14 -16 7 -21 -6 -3 -9 -18 -6 -32 3 -16 1 -23 -6
-19 -13 8 0 -28 14 -37 7 -5 7 -8 -2 -8 -7 0 -10 -4 -7 -10 3 -5 0 -10 -7 -10
-10 0 -10 -2 -1 -8 7 -5 10 -19 7 -36 -3 -17 -1 -25 6 -21 6 3 7 0 4 -9 -3 -9
-11 -13 -18 -9 -7 4 -7 1 1 -9 7 -8 10 -18 6 -22 -4 -4 -1 -11 7 -16 11 -7 12
-10 2 -10 -7 0 -10 -4 -7 -10 3 -5 0 -10 -7 -10 -10 0 -10 -2 -1 -8 7 -5 10
-19 7 -36 -3 -17 -1 -25 6 -21 6 3 7 0 4 -9 -3 -9 -11 -13 -18 -9 -8 5 -8 3 0
-8 13 -17 16 -62 4 -54 -4 3 -6 -4 -3 -15 3 -11 10 -17 17 -13 6 4 5 0 -2 -9
-9 -11 -10 -18 -2 -23 6 -3 8 -11 4 -16 -11 -18 -14 -58 -5 -64 6 -3 8 -12 5
-20 -4 -8 -10 -12 -15 -9 -5 3 -6 -2 -3 -10 3 -9 11 -13 16 -10 9 6 5 -6 -14
-37 -1 -3 4 -14 12 -24 8 -11 10 -16 3 -12 -9 6 -11 -2 -8 -28 3 -20 1 -34 -4
-31 -5 4 -7 -3 -4 -14 3 -11 10 -17 17 -13 6 4 5 0 -2 -9 -9 -11 -10 -18 -2
-23 6 -3 8 -11 4 -16 -3 -5 -7 -21 -10 -35 -3 -19 -1 -24 8 -18 10 6 10 5 2
-7 -6 -8 -10 -24 -8 -37 2 -13 0 -21 -4 -18 -11 7 -8 -31 3 -41 4 -5 5 -2 0 6
-5 9 -4 12 3 7 6 -4 9 -13 6 -21 -4 -8 -11 -12 -18 -8 -7 4 -6 1 2 -9 7 -8 10
-23 6 -32 -4 -10 -1 -16 7 -16 11 0 11 -3 -1 -10 -8 -5 -10 -10 -5 -10 6 0 3
-5 -5 -10 -10 -7 -11 -10 -2 -10 8 0 11 -10 7 -31 -4 -19 -2 -28 5 -24 6 3 7
0 4 -9 -3 -9 -11 -13 -18 -9 -7 4 -7 1 1 -9 7 -8 10 -18 6 -22 -4 -4 -1 -11 7
-16 11 -7 12 -10 2 -10 -7 0 -10 -4 -7 -10 3 -6 0 -10 -7 -10 -10 0 -10 -2 -1
-8 7 -5 10 -19 7 -36 -3 -17 -1 -25 6 -21 6 3 7 0 4 -9 -3 -9 -11 -13 -18 -9
-6 3 -6 1 2 -8 14 -16 16 -33 2 -24 -6 3 -7 -1 -4 -9 3 -9 11 -13 18 -9 6 4 5
-1 -3 -10 -7 -9 -10 -17 -5 -17 5 0 2 -5 -6 -10 -11 -7 -11 -10 -2 -10 7 0 11
-4 7 -9 -3 -5 -1 -12 4 -16 6 -3 8 -12 5 -20 -4 -8 -10 -12 -15 -9 -5 3 -6 -2
-3 -10 3 -9 11 -13 16 -10 7 4 7 0 0 -12 -5 -11 -7 -25 -4 -33 2 -8 0 -11 -6
-7 -6 4 -8 -2 -5 -14 3 -11 10 -17 17 -13 6 4 5 0 -2 -9 -9 -11 -10 -18 -2
-23 6 -3 8 -11 4 -16 -11 -18 -14 -58 -5 -64 6 -3 8 -12 5 -20 -4 -8 -10 -12
-15 -9 -5 3 -6 -2 -3 -10 3 -9 11 -13 16 -10 7 4 7 0 0 -12 -5 -11 -7 -25 -4
-33 2 -8 0 -11 -6 -7 -6 4 -8 -2 -5 -14 3 -11 9 -17 14 -14 5 3 6 -2 3 -10 -3
-9 -10 -13 -15 -10 -5 3 -6 -2 -3 -10 3 -9 11 -13 18 -9 7 4 7 1 -1 -9 -7 -8
-10 -18 -6 -21 3 -4 0 -7 -7 -7 -9 0 -8 -5 5 -13 11 -9 14 -16 7 -21 -6 -3 -9
-18 -6 -32 3 -16 1 -23 -6 -19 -13 8 0 -28 14 -37 7 -5 7 -8 -2 -8 -7 0 -10
-4 -7 -10 3 -5 0 -10 -7 -10 -10 0 -10 -2 -1 -8 7 -5 10 -19 7 -36 -3 -17 -1
-25 6 -21 6 3 7 0 4 -9 -3 -9 -11 -13 -18 -9 -7 4 -7 1 1 -9 7 -8 10 -18 6
-22 -4 -4 -1 -11 7 -16 11 -7 12 -10 2 -10 -7 0 -10 -5 -7 -10 3 -5 0 -10 -7
-10 -10 0 -10 -2 -1 -8 7 -5 10 -19 7 -36 -3 -17 -1 -25 6 -21 6 3 7 0 4 -9
-3 -9 -11 -13 -18 -9 -6 3 -6 1 2 -8 6 -7 12 -17 12 -22 0 -4 -6 -5 -12 -1 -9
5 -9 2 1 -9 7 -9 10 -17 5 -17 -5 0 -2 -5 6 -10 9 -6 11 -10 3 -10 -7 0 -10
-7 -6 -17 5 -12 3 -14 -8 -8 -11 7 -12 6 -3 -6 6 -8 10 -26 9 -41 -1 -15 2
-25 6 -23 4 3 9 1 11 -4 1 -5 12 2 22 17 12 16 14 23 5 18 -8 -4 -5 0 5 8 11
9 23 16 28 16 4 0 7 3 6 8 -2 4 1 8 6 9 5 1 16 13 26 27 9 15 19 24 22 20 4
-3 9 4 13 15 6 19 17 25 38 22 4 0 6 2 5 6 -2 5 5 19 15 33 9 13 17 21 17 17
0 -12 25 15 33 36 4 10 11 16 16 12 6 -3 8 4 6 15 -2 13 1 20 11 20 8 0 14 7
14 15 0 8 6 14 13 13 6 -2 11 2 10 9 -2 6 6 15 17 18 11 4 18 11 15 16 -6 8 8
13 28 10 4 0 6 2 6 6 -3 18 1 36 7 30 7 -6 34 16 34 28 0 4 7 13 15 22 8 8 12
20 8 26 -3 7 -3 9 2 5 8 -8 45 28 45 44 0 5 4 7 8 4 4 -2 17 9 27 25 11 16 28
32 38 35 9 3 15 9 12 13 -2 4 7 14 20 21 13 7 21 18 18 23 -4 6 0 8 10 4 9 -3
16 -3 16 1 -3 20 2 32 15 32 8 0 17 7 20 16 3 8 11 12 17 8 7 -4 9 -3 5 4 -3
6 6 23 21 38 16 14 23 24 17 21 -6 -3 -17 9 -24 28 -7 19 -18 32 -23 28 -5 -3
-4 4 2 16 8 14 8 21 1 21 -6 0 -9 12 -7 28 2 15 0 36 -6 47 -11 20 -13 30 -19
97 -2 20 -6 34 -10 31 -5 -2 -8 15 -8 40 0 29 -6 50 -19 64 -13 14 -16 24 -9
31 6 6 6 12 -1 16 -7 4 -11 43 -11 97 0 58 -4 89 -11 89 -6 0 -9 6 -6 14 3 8
0 16 -6 19 -7 3 -13 30 -15 63 -2 32 -6 61 -10 64 -4 3 -8 20 -7 39 0 18 -6
36 -12 38 -7 3 -13 9 -13 15 0 5 6 6 13 2 9 -6 9 -4 1 7 -6 8 -12 50 -13 94
-1 49 -6 82 -14 87 -9 6 -8 8 3 8 9 0 11 3 5 8 -5 4 -12 18 -14 32 -1 14 -7
32 -11 40 -5 8 -8 233 -8 500 0 399 3 486 14 498 8 7 12 17 9 22 -3 5 0 10 6
12 6 2 12 16 12 31 0 17 6 29 18 32 11 4 17 11 14 16 -4 5 1 9 11 9 9 0 32 9
50 21 19 11 38 18 43 15 5 -3 14 1 21 8 6 8 21 13 32 11 11 -3 30 1 42 7 11 6
32 13 44 14 13 2 29 10 35 19 7 8 26 18 42 21 17 3 32 9 33 15 2 5 8 7 13 4 4
-3 22 1 39 10 17 9 35 13 39 10 5 -3 17 2 25 11 9 8 16 12 16 9 0 -4 11 0 25
9 14 9 25 13 25 9 0 -5 4 -1 10 7 5 8 21 15 36 16 16 0 30 6 32 13 2 6 7 9 12
6 5 -3 14 0 22 7 7 7 20 14 28 16 8 2 17 7 20 11 3 4 14 7 25 6 11 0 22 3 25
7 3 3 12 8 20 10 8 2 21 9 28 16 8 7 17 10 22 7 4 -3 10 2 14 10 3 8 12 12 19
9 8 -3 17 2 21 11 3 9 11 13 17 9 6 -3 15 0 20 7 4 8 13 15 19 15 5 1 15 2 21
3 5 0 8 5 4 10 -3 6 4 8 15 6 11 -2 24 3 30 13 5 9 10 13 10 8 0 -4 11 -1 25
8 14 9 25 13 25 9 0 -5 4 -3 8 2 13 18 53 36 64 29 7 -4 8 -3 4 4 -4 7 -1 12
8 12 9 0 16 4 16 9 0 6 9 8 20 6 11 -2 19 1 17 8 -1 6 3 11 8 12 6 0 20 6 33
13 12 7 22 10 22 7 0 -4 7 1 16 9 8 9 20 14 25 11 5 -4 9 -1 9 5 0 7 7 9 16 6
8 -3 13 -2 10 3 -7 11 43 33 56 25 7 -4 8 -2 4 4 -6 11 0 14 20 11 4 0 10 4
13 9 3 6 13 12 21 14 7 2 24 13 35 25 12 13 25 20 29 16 4 -4 10 -2 14 4 4 6
14 13 22 15 8 2 21 9 28 16 8 7 18 10 23 7 5 -4 9 -2 9 3 0 6 14 15 30 21 17
5 33 17 36 25 3 9 10 14 14 11 5 -3 16 2 24 11 9 8 16 12 16 8 0 -3 6 -1 13 5
8 6 18 7 22 3 5 -4 6 -2 3 3 -3 6 0 16 8 23 8 7 14 10 14 7 0 -3 10 1 23 10
13 8 27 12 30 8 4 -3 7 -1 7 5 0 6 16 16 34 23 19 7 33 16 31 19 -3 4 13 15
35 25 22 10 37 22 33 28 -3 5 0 8 8 5 8 -3 20 2 28 9 7 8 20 12 28 9 8 -3 12
-2 10 2 -3 4 5 16 16 27 11 11 16 13 12 5 -7 -12 -6 -13 7 -3 8 7 18 9 22 5 4
-4 6 0 4 8 -2 8 3 15 10 16 6 1 15 3 20 4 4 1 11 2 15 1 5 -1 6 2 4 6 -6 10
13 27 33 31 8 2 23 13 33 25 10 12 15 15 11 7 -7 -13 -6 -13 11 0 11 8 27 23
37 33 10 10 23 15 28 12 6 -4 13 1 16 9 3 9 10 13 15 10 5 -3 17 4 27 16 9 11
24 22 32 23 8 2 25 11 38 22 12 11 26 20 30 20 4 0 18 9 30 21 12 12 35 21 50
20 l27 -1 2 -678 2 -677 -23 -25 c-13 -14 -29 -25 -35 -25 -7 0 -19 -7 -28
-16 -9 -8 -22 -13 -30 -10 -8 3 -12 2 -10 -2 4 -8 -29 -43 -39 -40 -4 0 -18
-8 -32 -18 -14 -10 -28 -19 -33 -19 -4 0 -16 -10 -27 -22 -10 -13 -22 -20 -26
-16 -4 4 -18 -5 -32 -21 -15 -15 -32 -25 -41 -22 -8 3 -12 2 -10 -2 5 -9 -24
-36 -44 -40 -7 -2 -17 -9 -21 -15 -4 -7 -8 -8 -8 -3 0 5 -6 3 -13 -3 -8 -6
-18 -7 -22 -3 -5 4 -6 3 -3 -3 8 -14 -14 -32 -35 -29 -9 1 -16 -1 -14 -4 5
-10 -30 -42 -37 -35 -3 4 -15 -4 -25 -16 -11 -12 -28 -23 -39 -24 -12 0 -19
-4 -18 -7 4 -7 -28 -34 -45 -38 -8 -2 -19 -9 -24 -16 -6 -7 -20 -16 -33 -20
-12 -4 -22 -12 -22 -17 0 -6 -4 -8 -9 -4 -6 3 -18 -3 -28 -14 -10 -11 -25 -21
-33 -23 -8 -2 -25 -13 -36 -25 -12 -12 -24 -20 -27 -17 -3 3 -17 -7 -33 -21
-16 -15 -36 -24 -45 -22 -11 3 -16 0 -13 -8 5 -11 -15 -25 -32 -24 -3 0 -12
-8 -20 -18 -7 -10 -14 -14 -14 -9 0 6 -7 1 -15 -10 -8 -10 -15 -16 -15 -12 0
4 -12 -4 -26 -17 -15 -14 -33 -25 -40 -25 -8 0 -14 -5 -14 -12 0 -6 -3 -8 -7
-5 -3 4 -21 -5 -40 -19 -18 -14 -33 -22 -33 -18 0 4 -11 -5 -25 -20 -14 -15
-25 -24 -25 -20 0 3 -7 1 -15 -6 -8 -6 -19 -9 -24 -5 -7 3 -8 0 -5 -9 5 -14 2
-17 -21 -16 -3 0 -16 -11 -29 -25 -13 -13 -26 -22 -29 -19 -3 4 -14 -1 -23
-10 -9 -10 -23 -15 -31 -12 -8 3 -12 2 -10 -2 5 -9 -30 -42 -37 -35 -3 3 -16
-5 -29 -17 -13 -13 -27 -22 -31 -21 -4 1 -17 -8 -28 -21 -11 -13 -25 -23 -31
-23 -7 0 -22 -9 -35 -20 -12 -11 -26 -20 -30 -20 -4 0 -18 -10 -31 -22 -13
-12 -28 -20 -32 -17 -4 2 -12 -4 -18 -13 -5 -10 -13 -15 -17 -11 -4 4 -17 -3
-29 -17 -13 -13 -26 -21 -29 -18 -3 3 -18 -7 -33 -23 -15 -16 -27 -27 -27 -26
-1 2 -13 -2 -28 -9 -15 -6 -25 -16 -21 -22 3 -5 0 -8 -8 -5 -15 5 -59 -34 -59
-52 0 -6 4 -9 8 -6 5 3 10 -56 11 -131 1 -75 6 -142 11 -148 5 -6 8 -109 7
-228 -1 -150 1 -218 9 -221 14 -5 18 -1448 3 -1456 -6 -4 -10 -206 -11 -521 0
-283 -5 -519 -10 -525 -5 -7 -9 -92 -10 -190 -1 -117 -5 -182 -12 -186 -7 -5
-6 -8 3 -8 11 0 11 -3 1 -14 -8 -11 -12 -78 -12 -228 -1 -117 -4 -220 -9 -228
-4 -9 -9 -58 -10 -110 -2 -52 -7 -98 -12 -101 -4 -3 -8 -100 -9 -215 -1 -135
-5 -214 -12 -223 -9 -12 -8 -13 2 -7 12 7 12 4 2 -13 -6 -12 -12 -59 -12 -104
-1 -45 -6 -88 -11 -95 -6 -7 -11 -98 -11 -215 -1 -111 -5 -213 -9 -227 -4 -14
-8 -47 -10 -75 -1 -27 -7 -56 -11 -64 -15 -23 -9 -109 7 -126 20 -19 37 -19
37 0 0 8 3 14 8 14 20 -3 32 2 29 14 -1 6 6 11 15 11 10 -1 15 3 11 9 -4 7 0
8 13 3 10 -4 16 -4 12 -1 -9 9 37 55 56 55 9 0 16 5 16 11 0 6 6 9 14 6 10 -4
12 0 9 14 -4 15 -2 18 11 13 9 -3 16 -1 16 4 0 6 9 14 20 17 11 3 20 13 20 21
0 8 6 14 14 12 8 -2 16 2 17 7 4 13 49 36 59 30 5 -3 6 5 2 17 -3 14 -1 19 6
14 6 -3 15 2 21 12 5 10 26 27 45 37 20 11 36 23 36 27 0 5 7 8 15 8 8 0 14 3
14 7 -3 20 2 34 11 28 6 -3 10 -1 10 5 0 6 5 8 10 5 6 -3 13 1 16 10 4 9 13
14 20 11 8 -3 14 1 14 10 0 8 5 12 10 9 6 -3 10 -1 10 4 0 14 37 51 51 51 5 0
7 5 4 11 -4 5 7 15 24 22 17 6 34 19 37 29 3 10 11 15 20 11 9 -3 14 1 14 12
0 11 5 15 14 12 10 -4 13 -1 9 9 -3 8 1 14 11 14 9 0 15 4 13 8 -3 10 100 112
116 113 7 1 16 1 20 0 5 -1 7 2 4 6 -6 11 260 273 269 265 4 -4 4 -2 0 5 -3 6
2 16 11 22 11 6 13 11 5 11 -7 0 -10 5 -7 10 4 6 10 8 15 5 5 -3 11 4 15 15 3
11 13 20 21 20 8 0 13 3 12 8 -4 10 89 102 96 95 3 -4 6 1 6 10 0 9 8 17 18
17 13 0 14 2 4 9 -10 6 -8 10 10 15 19 5 20 8 8 16 -13 8 -12 10 3 10 10 0 15
5 12 11 -4 6 3 13 15 16 14 4 19 11 15 21 -4 10 0 13 14 9 14 -3 18 -1 14 9
-3 8 0 14 7 14 6 0 8 5 5 10 -4 6 -2 9 3 8 15 -5 53 44 47 60 -3 10 0 12 10 8
9 -3 15 0 15 10 0 8 5 12 10 9 6 -3 10 3 10 14 0 12 5 21 11 21 5 0 7 -5 3
-12 -5 -7 -3 -8 5 -4 7 5 10 11 7 14 -3 3 1 14 11 24 9 10 13 18 9 18 -4 0 11
18 33 39 22 21 37 42 34 45 -4 3 -1 6 6 6 7 0 10 3 8 8 -6 10 39 52 48 44 4
-4 6 -2 5 3 -5 25 1 46 12 39 8 -5 9 -2 4 12 -4 10 -4 15 0 12 8 -9 25 8 43
44 8 15 18 25 23 22 5 -3 7 -2 6 3 -4 16 14 53 23 48 5 -4 9 1 9 10 0 11 5 15
14 12 10 -4 13 -1 10 8 -3 7 4 18 15 25 12 6 21 16 20 23 0 9 -2 9 -6 -1 -2
-6 -9 -10 -13 -7 -11 7 22 44 33 38 6 -4 11 12 8 30 0 4 4 7 9 7 6 0 15 11 22
25 6 13 15 22 19 19 5 -3 10 0 10 5 1 6 2 17 3 24 1 6 7 11 14 10 6 -2 9 4 6
12 -3 8 7 27 24 43 17 17 28 33 25 36 -3 3 -1 12 6 20 9 11 9 15 -1 19 -10 4
-10 6 0 6 22 1 44 30 38 47 -4 12 -2 15 9 10 9 -3 15 0 15 9 0 8 5 15 10 15 6
0 9 3 8 8 -3 12 26 67 40 76 12 7 12 10 1 17 -10 6 -11 9 -1 9 6 0 12 7 12 16
0 8 4 13 9 10 5 -4 17 14 27 39 10 27 23 45 33 46 9 0 11 3 4 5 -7 3 -9 12 -6
20 3 7 9 12 13 9 4 -2 7 3 7 13 0 34 3 43 13 37 6 -3 10 -1 10 4 0 22 2 26 16
34 8 5 12 12 9 18 -4 5 -1 9 4 9 6 0 11 13 11 30 0 22 4 28 15 23 9 -3 15 -2
14 3 -1 5 0 12 1 17 1 4 4 12 5 17 1 6 4 12 5 15 1 3 3 8 5 13 9 32 27 62 37
62 9 0 8 3 -2 10 -13 9 -8 14 12 11 4 0 5 9 3 20 -2 11 2 22 10 26 8 3 13 9
10 13 -3 5 2 15 11 24 8 9 13 20 10 25 -4 5 -1 11 5 13 6 2 12 16 12 31 1 15
8 27 15 27 6 0 11 3 10 7 -1 5 5 22 15 39 9 17 13 34 10 37 -3 4 0 13 7 22 7
9 10 18 6 22 -3 3 1 15 11 25 9 10 13 18 8 18 -4 0 -3 6 3 13 6 6 12 17 14 22
1 6 6 9 9 8 3 -1 6 3 7 10 1 7 4 28 7 47 3 19 6 43 6 53 0 9 4 15 10 12 11 -7
19 12 24 57 2 18 4 35 5 38 1 3 2 8 1 13 0 4 3 7 8 7 10 0 21 23 27 60 3 14
11 37 19 53 7 15 10 27 5 27 -5 0 -2 12 6 28 7 15 14 40 14 55 0 17 4 26 10
22 7 -4 9 4 6 22 -3 15 -10 29 -16 31 -7 3 -7 8 1 18 9 11 9 14 0 14 -7 0 -9
5 -6 11 4 6 -1 17 -11 24 -15 11 -16 14 -4 15 12 0 11 3 -3 11 -9 6 -15 14
-12 20 4 5 2 9 -4 9 -5 0 -8 8 -6 18 1 10 -5 34 -15 54 -10 20 -15 39 -12 42
3 4 0 6 -6 6 -6 0 -9 11 -6 24 3 17 -2 28 -13 35 -11 6 -13 11 -5 11 9 0 7 6
-6 20 -13 14 -18 34 -17 75 0 39 -4 55 -13 55 -7 0 -10 5 -7 10 3 6 1 10 -5
10 -7 0 -10 7 -7 15 4 8 2 17 -4 21 -6 3 -8 13 -4 22 3 8 1 18 -4 21 -8 5 -20
51 -23 89 -1 6 -4 12 -7 12 -4 0 -6 24 -6 53 1 62 -3 79 -19 70 -6 -3 -8 -3
-4 2 4 4 2 17 -4 28 -6 12 -13 46 -15 77 -4 75 -5 80 -13 80 -3 0 -6 61 -5
135 0 74 -4 135 -8 135 -5 0 -5 5 -2 10 3 6 2 10 -3 10 -12 0 -9 329 3 338 6
4 10 45 9 92 -1 47 3 90 8 97 6 7 5 14 -3 18 -8 6 -8 10 2 15 8 5 13 36 15 85
2 57 7 82 21 97 10 12 12 18 6 14 -9 -5 -11 -2 -7 8 3 9 10 16 14 16 4 0 6 11
5 23 -2 13 8 45 21 71 13 25 24 50 24 54 1 23 13 41 23 36 7 -4 9 -4 5 1 -4 4
-3 14 3 22 6 7 8 13 3 13 -5 0 -2 5 6 10 13 8 13 10 1 10 -9 0 0 13 19 30 18
17 28 30 20 30 -8 0 -3 9 11 23 13 12 30 35 37 50 7 18 18 27 26 24 10 -4 12
0 9 14 -4 14 -1 18 9 14 10 -4 17 1 21 15 3 11 11 19 19 18 7 -2 12 5 11 15
-1 14 4 17 18 14 10 -3 16 -1 13 4 -6 10 51 71 59 63 3 -3 8 4 12 17 6 17 9
19 16 8 7 -11 9 -10 9 4 0 9 5 17 11 17 6 0 25 15 43 34 30 34 31 37 29 123
-2 112 -4 125 -25 141 -9 7 -15 19 -12 27 4 8 -1 18 -10 21 -9 3 -14 10 -11
14 3 5 1 11 -5 15 -6 4 -8 11 -5 16 4 5 1 9 -5 9 -6 0 -8 5 -5 10 3 6 1 10 -6
10 -6 0 -9 8 -6 20 3 11 1 18 -3 15 -8 -5 -37 35 -32 43 6 9 0 22 -11 22 -14
0 -47 35 -47 51 0 5 -4 8 -9 4 -5 -3 -19 8 -31 25 -15 21 -17 30 -8 30 8 0 9
3 2 8 -9 6 -11 42 -5 105 0 12 5 16 14 11 7 -5 6 0 -3 11 -8 10 -10 16 -4 12
7 -4 14 2 17 13 3 11 1 20 -4 20 -6 0 -5 8 1 20 8 14 8 20 0 20 -8 0 -8 6 0
20 8 15 8 20 -2 20 -9 0 -9 3 0 12 8 8 8 17 1 30 -7 13 -6 20 3 23 10 4 13 68
13 298 0 319 2 347 19 347 6 0 13 10 14 23 1 12 3 332 4 710 2 597 1 689 -12
697 -11 7 -12 10 -2 10 8 0 10 5 6 12 -4 7 -9 24 -10 38 -1 14 -5 41 -9 60 -4
19 -8 76 -9 125 -1 50 -6 97 -11 105 -5 8 -10 23 -10 33 -1 10 -7 22 -14 27
-10 5 -10 9 -2 15 7 4 8 11 3 18 -5 7 -8 32 -8 57 1 28 -5 50 -14 58 -13 12
-13 13 0 6 11 -5 10 -1 -3 13 -10 12 -20 41 -22 65 -6 63 -9 73 -28 92 -19 20
-23 31 -6 20 8 -4 8 -1 2 12 -5 11 -9 46 -8 79 0 55 -17 101 -35 90 -3 -2 -5
9 -4 23 0 15 -6 33 -15 40 -9 8 -10 10 -3 7 11 -6 11 -3 1 13 -7 12 -16 19
-19 17 -4 -2 -6 4 -6 13 0 52 -5 83 -12 78 -5 -3 -8 5 -7 17 1 12 -2 25 -7 28
-4 3 -9 25 -11 50 -1 24 -9 49 -17 56 -13 11 -13 12 0 13 12 0 11 3 -3 11 -9
6 -15 14 -12 20 4 5 2 9 -4 9 -5 0 -8 8 -6 18 3 21 -23 74 -34 68 -5 -3 -7 7
-5 21 1 15 -4 32 -12 38 -8 6 -16 17 -17 25 -2 8 -5 20 -8 25 -3 6 -5 22 -4
38 1 17 -3 27 -12 27 -8 0 -11 5 -8 10 3 6 1 10 -5 10 -7 0 -10 7 -6 15 3 8 1
15 -4 15 -5 0 -7 7 -4 15 4 8 1 15 -6 15 -6 0 -9 4 -5 9 3 5 -2 11 -11 13 -11
2 -18 15 -20 37 -3 19 -11 42 -20 52 -13 15 -19 38 -23 92 0 9 -8 17 -17 17
-10 0 -14 6 -10 15 3 8 1 15 -4 15 -5 0 -7 7 -4 15 4 9 0 15 -10 15 -9 0 -15
6 -13 13 1 6 -3 11 -8 10 -6 -1 -10 10 -9 24 0 14 -9 35 -23 49 -12 12 -20 29
-18 36 3 8 -3 23 -14 35 -11 11 -17 24 -14 27 4 3 -1 6 -11 6 -9 0 -14 5 -11
10 3 6 1 10 -5 10 -6 0 -8 5 -5 10 3 6 2 10 -3 10 -5 0 -13 8 -16 18 -13 33
-31 62 -39 62 -4 0 -5 4 -2 10 7 11 -24 62 -34 56 -3 -2 -7 10 -7 26 -1 17 -9
35 -18 40 -9 5 -14 13 -12 17 3 4 -9 15 -25 25 -21 12 -28 21 -21 28 7 7 4 17
-9 31 -10 11 -19 27 -19 34 0 8 -4 11 -10 8 -9 -6 -14 8 -11 28 1 5 -3 6 -9 2
-17 -11 -32 5 -19 21 8 10 8 14 0 14 -6 0 -11 7 -11 16 0 9 -5 12 -12 8 -8 -5
-8 -2 1 10 8 9 10 16 4 14 -20 -6 -75 43 -68 60 3 9 3 13 -1 10 -12 -12 -44
11 -38 27 4 10 0 15 -11 15 -15 0 -15 3 -5 15 11 13 10 14 -2 10 -9 -4 -21 4
-32 19 -9 15 -14 26 -11 26 3 0 -13 18 -35 40 -24 23 -38 45 -34 52 4 7 3 8
-4 4 -7 -4 -12 -2 -12 4 0 6 -4 9 -9 5 -6 -3 -15 4 -21 16 -10 17 -9 20 2 14
7 -4 3 2 -9 14 -13 12 -23 26 -23 31 0 6 -5 10 -11 10 -14 0 -109 96 -109 110
0 6 -5 9 -12 8 -6 -2 -17 8 -25 22 -7 14 -13 21 -13 15 0 -5 -5 -2 -11 8 -5 9
-18 17 -27 17 -15 0 -15 2 -2 10 12 8 12 10 1 10 -16 0 -61 46 -53 54 5 6 -15
10 -33 6 -5 -1 -7 1 -3 5 8 8 -56 75 -72 75 -15 0 -41 26 -33 34 6 6 -12 10
-30 7 -4 0 -6 2 -5 6 4 12 -40 53 -57 53 -9 0 -18 6 -21 14 -3 8 -14 13 -25
11 -11 -2 -17 0 -14 6 4 5 1 9 -5 9 -7 0 -10 7 -7 14 4 10 1 13 -9 9 -7 -3
-14 0 -14 6 0 6 -12 11 -27 11 -18 0 -24 3 -15 8 9 6 5 12 -15 23 -16 7 -36
22 -45 33 -13 14 -18 15 -18 5 -1 -8 -6 -5 -13 8 -7 12 -16 23 -22 25 -5 2 -9
6 -7 11 1 4 -1 6 -5 6 -24 -4 -43 2 -37 12 4 7 -2 9 -17 7 -16 -2 -23 2 -21
10 1 8 -11 19 -28 25 -16 6 -30 15 -30 19 0 4 -6 8 -14 8 -19 0 -76 33 -76 43
0 5 -4 5 -10 2 -5 -3 -10 -2 -10 3 0 4 -16 14 -35 22 -19 7 -32 17 -29 22 3 4
-6 8 -20 8 -14 0 -26 5 -26 10 0 6 -7 10 -16 10 -9 0 -29 9 -45 21 -16 11 -33
18 -38 15 -5 -3 -11 1 -15 9 -3 8 -12 15 -20 15 -9 0 -32 10 -53 21 -21 12
-45 22 -53 23 -8 1 -34 11 -56 23 -23 12 -44 19 -48 16 -3 -4 -6 -1 -6 5 0 7
-11 12 -25 12 -14 0 -25 3 -25 8 0 10 -50 32 -73 32 -11 0 -15 4 -11 12 5 8 0
9 -15 5 -13 -3 -21 -3 -18 0 9 8 -17 31 -29 26 -7 -2 -15 0 -19 6 -3 6 -17 11
-31 11 -14 0 -23 4 -20 8 2 4 -5 9 -17 9 -12 1 -26 8 -32 16 -5 8 -14 15 -20
16 -27 4 -45 13 -45 23 0 6 -3 9 -6 5 -9 -8 -64 21 -64 33 0 6 -7 10 -15 10
-14 0 -53 18 -65 30 -13 13 -52 30 -59 26 -4 -3 -13 4 -21 14 -8 10 -17 17
-22 14 -4 -3 -8 2 -8 10 0 8 -5 18 -12 22 -7 4 -8 3 -4 -4 4 -7 1 -12 -9 -12
-9 0 -13 5 -10 10 3 6 -2 10 -12 10 -10 0 -26 9 -36 20 -10 12 -22 18 -27 15
-6 -3 -10 1 -10 10 0 9 -4 14 -9 10 -6 -3 -14 2 -19 11 -5 9 -13 17 -18 17 -5
1 -8 5 -7 9 2 4 -3 5 -11 2 -8 -3 -20 4 -28 14 -7 11 -30 28 -51 38 -29 14
-34 20 -25 31 6 8 7 13 2 12 -22 -4 -34 2 -34 17 0 8 -4 13 -10 9 -5 -3 -15 6
-22 19 -7 14 -16 25 -20 25 -5 1 -12 1 -18 1 -5 0 -10 6 -10 13 0 6 -13 25
-30 40 -16 16 -30 33 -30 38 0 5 -7 9 -15 9 -9 0 -20 11 -24 24 -11 26 -49 48
-52 29z"/>
</g>
</svg>
